<svg width="45" height="9" viewBox="0 0 45 9" fill="none" xmlns="http://www.w3.org/2000/svg">
<path id="Vector" d="M1.90024 8.19984C3.10024 7.84984 5.55024 6.44985 7.40024 5.09985C13.7002 0.449849 16.4002 -0.400157 21.3502 0.749843C23.2002 1.19984 25.9002 2.19984 27.2502 2.99984C36.0502 8.09984 37.6502 8.29984 42.8502 4.99984C43.7502 4.39984 44.1002 4.39984 44.6002 4.89984C45.1502 5.44984 45.1002 5.49984 44.4502 5.24984C43.9502 5.04984 42.8502 5.49984 41.7502 6.19984C38.0002 8.79984 35.3502 8.39984 29.0002 4.49984C20.8502 -0.550158 14.8502 -0.200161 7.3502 5.69984C5.7002 6.94984 3.6002 8.19984 2.6002 8.49984C-0.0998046 9.24984 -0.599756 8.99984 1.90024 8.19984Z" fill="#FF0000"/>
</svg>
